<svg width="3013" height="5855" viewBox="0 0 3013 5855" fill="none" xmlns="http://www.w3.org/2000/svg">
<path d="M1047.71 2689.25C1160.71 2674.86 1266.53 2657.11 1400.69 2628.62C1400.76 2628.6 1400.84 2628.59 1400.91 2628.57C1420 2624.49 1439.74 2620.15 1460.17 2615.52C1624.17 2578.48 1836.67 2521.43 2155.37 2420.36C2331.96 2364.8 2491.32 2314.32 2632.33 2279.02C2705.98 2261.16 2767.6 2246.84 2840.4 2242.9C2855.68 2242.35 2877.98 2242.29 2898.89 2245.84C2915.2 2248.57 2952.82 2256.79 2978.61 2286.49C3009.05 2318.56 3006.86 2369.42 3002.42 2384.42C2998.28 2405.4 2987.87 2427.22 2982.83 2436.2C2975.05 2450.66 2964.54 2467.41 2951.53 2485.52C2940.75 2500.37 2926.75 2518.91 2902.58 2547.34C2895.35 2555.79 2887.67 2564.97 2879.57 2574.94C2847.05 2615.69 2798.43 2676.55 2753.52 2767.22C2729.8 2816.36 2707.45 2874.74 2700.13 2944.27C2684.85 3054.16 2734.44 3189.73 2827.2 3339.01C2870.87 3414.7 2923.5 3497.78 2949.97 3602.16C2978.31 3706.68 2958.4 3827.34 2908.13 3919.25C2896.71 3941.17 2883.94 3961.51 2869.91 3980.22C2675.1 4221.54 2375.64 4140.26 2218.37 4106.01C1971.43 4041.1 1748.36 3937.19 1514.42 3822.75C1298.99 3716.77 1075.4 3594.64 810.934 3462.93C611.048 3368.03 407.183 3253.38 209.154 3237.48C187.191 3236.86 161.649 3240.3 145.287 3247.36C84.4056 3266.76 76.7657 3370.59 92.7847 3465.03C96.3633 3488.17 101.407 3513.48 108.008 3540.89C113.198 3562.89 119.424 3586.35 126.776 3611.35C142.515 3664.41 158.445 3710.64 177.39 3761.19C186.914 3786.52 197.114 3812.47 207.956 3839.03C338.633 4174.02 451.329 4438.98 471.755 4775.39C471.562 4845.24 468.443 4921.7 420.833 4993.29C372.602 5071.04 256.681 5081.92 181.842 5047.48C124.675 5023.31 66.452 4987.56 26.0998 4917.09C17.1794 4899.48 8.36232 4877.3 11.0798 4848.94C13.3566 4820.93 32.9075 4794.3 55.017 4781.14C99.6301 4755.67 134.75 4755.43 177.474 4754.28C339.759 4757.82 502.343 4673.15 663.126 4578.08C688.976 4563.4 715.107 4548.83 741.913 4534.98C742.049 4534.91 742.185 4534.84 742.322 4534.77C881.285 4454.81 1072.48 4424.47 1214.35 4493.02C1357.08 4555.06 1459.09 4652.45 1540.74 4733.86C1551.18 4744.47 1561.46 4755.16 1571.58 4765.91C1799.5 5010.51 1869.29 5125.71 1926.73 5221.46C1948.95 5260.48 1967.35 5295.79 1986.38 5342.72C2016.38 5423 2061.57 5548.25 1992.21 5678.68C1917.19 5807.73 1759.82 5843.01 1629.09 5853C1628.07 5853.08 1627.05 5853.15 1626.02 5853.23C1580.32 5856.4 1545.15 5850.2 1544.97 5843.38C1545.71 5836.38 1580.52 5831.33 1624.99 5828.2C1760.24 5819.13 1916.89 5777.6 1977.18 5653.59C1974.92 5644.88 1985.65 5612.25 1990.5 5572.61C2020.71 5469.5 1906.21 5168.45 1581.45 4835.11C1601.45 4858.66 1619.3 4880.41 1633.59 4898.35C1650.2 4919.24 1663.61 4936.66 1674.41 4950.96C1696.48 4980.35 1712.34 5001.76 1737.98 5036.42C1798.84 5119.11 1897.78 5249.93 1949.22 5409.93C1961.86 5450.59 1960.5 5484.73 1953.63 5485.18C1946.72 5485.94 1937.18 5455.27 1925.1 5416.63C1924.87 5415.9 1924.64 5415.16 1924.41 5414.42C1875.15 5262 1774.48 5127.19 1711.45 5042.92C1695.53 5021.94 1680.38 5002.65 1669.82 4989.29C1661.34 4978.55 1650.41 4964.94 1644.38 4957.17C1643.58 4956.14 1642.07 4954.17 1640.27 4951.78C1640.24 4951.74 1640.21 4951.7 1640.18 4951.66C1639.19 4950.34 1634 4943.5 1628.85 4935.92C1627.86 4934.45 1625.72 4931.25 1623.35 4927.37C1622.64 4926.46 1621.93 4925.55 1621.22 4924.63C1611.25 4911.89 1600.83 4898.77 1589.13 4884.45C1572.29 4863.89 1553.21 4840.94 1525.33 4809.27C1476.72 4755.94 1412.71 4680.49 1291.25 4596.76C1206.61 4539.61 1063.8 4471.31 897.209 4525.19C731.115 4572.56 571.629 4720.57 344.66 4782.95C375.129 4775.47 405.382 4765.85 434.913 4754.69C509.113 4726.7 579.186 4688.76 647.611 4650.73C673.942 4636.11 699.713 4621.69 725.999 4607.6C768.393 4584.89 811.393 4563.46 855.507 4546.77C885.281 4535.51 915.712 4526.4 946.44 4520.65C946.509 4520.64 946.578 4520.63 946.647 4520.61C989.347 4512.57 1032.87 4511.21 1075.69 4517.38C1091.11 4519.6 1105.21 4522.49 1119.94 4526.28C1177.54 4541.34 1231.47 4567.29 1288.43 4605.7C1295.36 4610.46 1302.96 4615.95 1308.65 4620.2C1314.28 4624.43 1319.69 4628.6 1324.84 4632.69C1329.38 4636.29 1333.73 4639.83 1337.93 4643.28C1338.49 4643.74 1339.05 4644.21 1339.62 4644.67C1344.32 4648.56 1348.85 4652.36 1353.23 4656.08C1357.79 4659.95 1361.36 4663.08 1365.27 4666.49C1365.31 4666.51 1365.34 4666.54 1365.38 4666.57C1369.4 4670.08 1372.47 4672.77 1376.8 4676.58C1382.23 4681.36 1386.95 4685.55 1392.73 4690.72C1398.25 4695.67 1404.41 4701.24 1410.03 4706.4C1415.52 4711.45 1421.17 4716.7 1426.95 4722.14C1432.73 4727.59 1438.66 4733.25 1444.69 4739.09C1450.69 4744.9 1456.97 4751.05 1463.04 4757.1C1468.76 4762.8 1474.58 4768.69 1480.47 4774.72C1494.04 4788.61 1506.43 4803.56 1514.62 4815.73C1515.13 4816.48 1515.62 4817.21 1516.08 4817.93C1523.12 4828.8 1525.67 4835.87 1523.4 4837.86C1521.15 4839.83 1514.35 4836.71 1504.15 4829.12C1503.33 4828.51 1502.49 4827.87 1501.63 4827.21C1490.01 4818.24 1475.79 4805.34 1462.22 4791.85C1458.52 4788.18 1454.82 4784.53 1451.13 4780.93C1448.93 4778.79 1446.73 4776.64 1444.54 4774.52C1438.15 4768.33 1431.68 4762.19 1425.28 4756.18C1418.88 4750.17 1412.48 4744.26 1406.08 4738.44C1399.54 4732.5 1393.6 4727.18 1386.42 4720.85C1379.39 4714.65 1372.29 4708.5 1365.17 4702.45C1358.23 4696.54 1350.43 4690.01 1343.56 4684.35C1338.79 4680.41 1331.61 4674.58 1326.21 4670.28C1320.46 4665.69 1314.87 4661.29 1309.53 4657.17C1304.17 4653.04 1299.06 4649.16 1294.21 4645.55C1293.69 4645.17 1293.17 4644.78 1292.65 4644.4C1288.03 4641 1283.51 4637.75 1279.31 4634.79C1274.61 4631.48 1270.18 4628.46 1266 4625.67C1261.39 4622.61 1258.6 4620.83 1255.19 4618.69C1208.49 4589.65 1147.83 4561.85 1088.42 4551.81C1081.03 4550.51 1073.3 4549.39 1065.97 4548.58C1026.78 4544.17 987.426 4546.56 948.093 4555.08C919.554 4561.23 890.965 4570.55 862.61 4582.06C820.774 4599.03 779.133 4620.79 737.187 4644.19C711.198 4658.7 685.426 4673.64 658.876 4688.83C589.59 4728.49 516.786 4768.8 436.991 4798.78C357.479 4828.9 270.658 4847.45 182.855 4847.45C181.066 4847.46 179.272 4847.45 177.474 4847.45C142.313 4846.31 106.218 4855.18 102.078 4860.79C101.668 4861.11 101.723 4861.08 101.921 4860.67C102.119 4860.28 102.36 4859.59 102.406 4859.2C102.465 4858.8 102.36 4858.72 102.313 4859.3C102.267 4859.89 102.313 4861.05 102.614 4862.64C103.814 4869.67 109.873 4881.92 118.635 4893.32C145.578 4928.73 191.925 4960.14 234.125 4973.62C256.771 4981 279.293 4983.61 298.154 4980.69C298.219 4980.68 298.285 4980.68 298.35 4980.67C315.006 4978.12 329.29 4971.44 341.394 4960.78C368.194 4937.44 384.2 4893.78 391.101 4846.12C397.957 4800.36 397.206 4747.78 393.04 4699.64C388.416 4647.63 380.808 4600.29 369.857 4547.08C360.252 4500.24 346.329 4444.88 332.583 4396.7C312.359 4325.91 292.33 4264.6 266.657 4191.91C244.41 4129.02 215.427 4053.14 190.095 3990.49C180.81 3967.46 171.162 3943.89 161.129 3919.8C161.091 3919.71 161.053 3919.61 161.014 3919.52C153.955 3902.58 146.708 3885.37 139.274 3867.91C126.488 3837.85 114.617 3808.91 103.651 3781.06C78.1138 3716.61 49.9111 3636.7 31.9456 3570.01C21.7076 3532.59 12.3919 3490.7 7.16951 3455.89C1.24074 3416.92 -2.1454 3374.52 1.52005 3334.08C3.65044 3310.65 8.03518 3288.85 15.0816 3268.75C22.8386 3246.2 36.0287 3222.55 52.6776 3204.67C69.8661 3185.84 91.9384 3171.08 115.86 3161.59C137.285 3153.04 160.348 3148.22 184.615 3146.24C261.07 3140.6 338.365 3160.41 402.037 3179.57C419.681 3184.97 438.041 3191.03 456.233 3197.41C535.967 3225.48 614.03 3259.22 689.709 3293.63C763.569 3327.31 837.446 3362.93 912.512 3399.78C985.316 3435.51 1060.95 3473.34 1135.28 3510.45C1211.28 3548.41 1284.62 3584.98 1360.72 3622.27C1435.84 3659.07 1512.02 3695.76 1588.76 3731.33C1631.57 3751.19 1677.69 3772.26 1720.52 3791.3C1763.84 3810.57 1808.4 3829.88 1850.9 3847.56C1868.1 3854.72 1885.63 3861.91 1903.29 3869C1928.91 3879.29 1954.08 3889.1 1978.6 3898.32C2019.03 3913.52 2062.78 3928.95 2101.88 3941.47C2140.12 3953.75 2182.35 3966.03 2219.21 3975.16C2256.62 3984.41 2292.01 3991.93 2329.86 3997.88C2423.81 4012.82 2482.34 4014.55 2542.42 4009.16C2553.61 4008.04 2566.43 4006.35 2578.85 4004.06C2648.49 3991.8 2708.78 3960.98 2749.86 3911.3C2763.29 3895.3 2775.49 3876.97 2786.45 3855.68C2808.34 3813.17 2821.82 3770.35 2824.73 3727C2829.55 3662.8 2808.96 3596.28 2775.07 3528.42C2741.6 3460.8 2697.09 3392.4 2656.86 3316.84C2616.64 3241.73 2580.04 3155.21 2567.7 3064.46C2560.21 3012.58 2560.92 2954.99 2569.04 2904.32C2574.72 2867.74 2584.03 2832.04 2595.37 2799.05C2600.14 2785.12 2605.19 2771.86 2610.38 2759.22C2628.94 2714.05 2650.87 2673.02 2673.29 2636.04C2696.67 2597.6 2719.57 2564.64 2745.35 2530.24C2762.58 2507.33 2780.64 2484.57 2800.04 2461.28C2807.42 2452.43 2814.14 2444.05 2820.24 2436.15C2840.65 2409.76 2861.13 2378.64 2865.6 2360.47C2865.84 2359.38 2865.88 2358.77 2865.84 2358.69C2865.82 2358.65 2865.78 2358.74 2865.74 2358.97C2865.72 2359.08 2865.69 2359.22 2865.68 2359.4C2865.67 2359.5 2865.66 2359.56 2865.65 2359.73C2865.64 2359.88 2865.64 2360.05 2865.63 2360.24C2865.43 2363.12 2867.03 2371.32 2871.58 2377.58C2875.97 2383.85 2880.6 2386.49 2882.06 2387.29C2882.81 2387.69 2882.81 2387.68 2882.08 2387.54C2881.55 2387.45 2880.66 2387.29 2879.42 2387.13C2858.39 2384.28 2818.86 2390.1 2784.28 2397.5C2744.68 2405.9 2710.72 2415.18 2672.31 2426.2C2660.79 2429.54 2648.25 2433.26 2636.01 2436.97C2596.14 2449.03 2562.88 2459.8 2524.15 2472.52C2486.13 2485.04 2451.95 2496.7 2413.9 2509.74C2377.18 2522.37 2342.36 2534.54 2304.5 2547.79C2243.03 2569.4 2180.8 2590.29 2129.13 2607.29C2075.52 2624.91 2025.11 2641.04 1976.17 2656.42C1966.96 2659.31 1957.72 2662.2 1948.46 2665.09C1908.35 2677.58 1870.03 2689.3 1831.18 2700.97C1783.23 2715.37 1736.86 2728.98 1689.54 2742.45C1642.72 2755.77 1595.26 2768.85 1548.45 2781.24C1501.19 2793.75 1455.33 2805.39 1406.39 2817.12C1357.54 2828.79 1307.55 2840.22 1252.98 2851.4C1197.34 2862.73 1141.84 2872.88 1081.32 2881.67C1022.59 2890.21 961.223 2896.97 900.782 2900.63C839.661 2904.32 778.366 2905.15 715.237 2901.42C653.196 2897.75 588.896 2889.28 527.73 2874.25C463.766 2858.61 399.927 2834.93 342.417 2801.55C249.243 2748.87 168.522 2662.07 124.109 2564.45C120.432 2556.59 116.913 2548.6 113.554 2540.49C70.5631 2429.7 84.8471 2330.56 99.2818 2243.19C117.023 2147.57 145.186 2058.85 175.557 1972.61C206.119 1886.44 239.746 1802.9 273.192 1720.65C280.502 1702.67 287.999 1684.29 295.332 1666.25C321.138 1602.63 346.691 1539.67 368.149 1478.3C368.3 1477.87 368.451 1477.44 368.602 1477.02C381.846 1438.91 394.457 1397.78 399.097 1367.06C401.959 1353.43 399.214 1337.21 401.798 1348.17C402.98 1353.44 414.361 1370.03 427.678 1375.76C430.818 1377.32 433.783 1378.38 436.248 1379.05C438.353 1379.63 439.956 1379.91 441.238 1380.08C443.791 1380.4 444.626 1380.21 443.919 1380.25C438.96 1379.66 409.217 1389.44 388.69 1399.6C362.245 1412.2 341.305 1423.96 313.964 1440.31C296.128 1451.04 276.777 1463.26 256.096 1476.88C250.675 1480.45 245.604 1483.95 240.876 1487.37C230.302 1495.02 221.484 1502.22 214.208 1508.87C206.644 1515.71 198.607 1524.37 194.085 1530.48C191.859 1533.43 190.196 1535.9 188.634 1538.51C186.918 1541.39 185.738 1543.82 184.93 1545.82C183.333 1549.84 183.101 1551.99 183.102 1553.74C183.106 1554.07 183.124 1554.38 183.154 1554.7C182.981 1557.29 187.09 1570.36 203.571 1587.41C247.657 1632.81 325.776 1670.65 404.15 1700.31C484.808 1730.57 569.077 1753.64 656.489 1773.06C689.582 1780.39 726.001 1787.67 759.515 1793.75C812.534 1803.39 868.013 1811.95 922.243 1819.01C1013.08 1830.84 1103.52 1839.18 1195.28 1844.57C1286.79 1849.92 1378.96 1852.21 1470.62 1851.29C1562.22 1850.37 1654.67 1846.16 1744.92 1838.35C1846.07 1829.57 1945.45 1816.28 2043.72 1796.82C2141.44 1777.43 2237.99 1751.87 2329.71 1717.83C2422.08 1683.42 2508.36 1641.26 2585.12 1586.15C2661.16 1531.51 2724.99 1464.59 2766.35 1385.82C2769.75 1379.35 2773.01 1372.81 2776.12 1366.19C2797.2 1321.23 2815.03 1274.69 2829.62 1226.95C2837.68 1197.43 2844.18 1168.69 2849.45 1140.93C2885.67 934.514 2874.84 778.398 2842.69 576.216C2839.26 556.719 2836.16 541.178 2832.12 521.934C2831.36 518.286 2830.54 514.423 2829.7 510.497C2824.31 485.447 2817.95 456.864 2808.63 416.835C2797.13 367.283 2780.93 301.521 2760.37 219.497C2755.04 197.865 2748.34 176.816 2740.84 161.33C2737.39 153.987 2733.26 147.923 2732.15 146.339C2731.55 145.427 2731.9 145.635 2733.58 146.285C2735.2 146.929 2738.33 147.848 2741.23 147.968C2745.2 148.167 2747.11 146.86 2746.53 146.046C2746.04 145.176 2743.8 144.694 2741.51 144.305C2736.82 143.569 2732.5 142.37 2732.96 138.161C2733.08 132.151 2744.18 124.137 2744.73 123.907C2743.01 118.454 2698.96 144.227 2672.68 177.26C2661.14 190.421 2650.03 203.006 2641.17 211.605C2632.39 220.087 2626.88 223.239 2624.87 220.325C2622.05 218.773 2624.17 209.478 2630.2 197.06C2636.38 184.401 2646.74 168.713 2658.95 154.906C2689.72 118.286 2735.54 87.7194 2754.75 98.7045C2778.91 106.989 2802.2 157.962 2814.14 205.146C2814.18 205.305 2814.22 205.464 2814.27 205.624C2827.85 256.622 2841.12 307.868 2853.26 359.277C2865.34 410.384 2876.38 461.819 2885.86 513.54C2895.4 565.591 2903.23 616.855 2909.2 669.094C2912.76 700.363 2915.63 732.099 2917.65 763.266C2918.39 774.845 2919.03 786.254 2919.54 797.565C2919.96 806.811 2920.3 816.128 2920.58 825.742C2923.52 926.59 2917.17 1028.48 2898.71 1127.09C2882.08 1216.23 2855.56 1303.04 2818.36 1385.41C2814.32 1394.37 2810.03 1403.2 2805.5 1411.9C2760.64 1498.5 2691.29 1571.66 2611.06 1630.27C2530.05 1689.45 2439.86 1734.42 2344.73 1770.98C2249.73 1807.34 2151.37 1834.47 2051.52 1855.49C1974.25 1871.73 1896.33 1884.16 1818.55 1893.58C1787.8 1897.81 1757.11 1901.51 1727.17 1904.7C1639.45 1914.03 1551.16 1920.38 1463.88 1923.68C1619.32 1920.46 1743.19 1908.76 1860.71 1891.95C1876.43 1889.68 1891.58 1887.35 1907.39 1884.81C2064.9 1858 2217.89 1826.61 2408.55 1746.69C2614.13 1659.51 2760.62 1528.41 2822.92 1387.49C2927.11 1153.65 2929.44 966.78 2929.88 836.922C2924.2 624.112 2902.72 533.229 2891.86 447.944C2882.58 384.109 2862.59 289.516 2839.86 198.281C2829.79 158.164 2816.27 119.031 2792.47 91.9679C2769.25 63.6334 2733.32 64.0568 2710 76.3496C2673.34 94.3526 2646.66 118.543 2641.5 113.056C2637.11 108.891 2655.63 75.3423 2700.16 53.3133C2726.38 37.8922 2782.54 38.536 2810.62 74.63C2839.73 107.773 2853.18 149.082 2864.21 191.783C2890.57 296.78 2914.43 411.168 2924.75 492.398C2931.3 556.978 2949.85 630.728 2955 843.259C2953.96 972.772 2951.47 1160.29 2845.71 1397.86C2780.43 1545.57 2627.68 1681.32 2417.15 1770.25C2230.08 1848.47 2081.93 1879.92 1924.66 1907.44C1909.04 1910.03 1893.35 1912.51 1877.73 1914.85C1877.64 1914.86 1877.54 1914.87 1877.44 1914.89C1731.74 1936.21 1571.86 1951.1 1355.59 1949.17C861.108 1952.33 174.646 1806.29 93.1158 1617.33C75.8766 1587.47 69.8958 1550.74 80.2342 1516.86C98.3916 1461.79 135.318 1426.05 195.058 1384.31C240.731 1353.91 285.853 1322.98 353.579 1291.12C360.482 1287.95 371.333 1283.33 380.414 1279.96C390.319 1276.34 396.824 1274.04 409.2 1270.85C430.546 1266.42 454.28 1259.6 484.24 1276.23C513.396 1294.65 516.539 1330.53 516.087 1353.53C515.413 1379.59 510.636 1404.04 504.499 1429.62C486.235 1503.08 455.694 1582.04 421.407 1669.06C372.725 1799.98 324.277 1926.11 288.734 2036.82C258.113 2132.07 235.503 2222.64 227.626 2308.53C225.495 2332.55 224.507 2358.05 225.557 2381.87C227.108 2419.24 233.817 2455.89 247.413 2484.64C256.022 2503.37 265.522 2520.62 275.752 2536.53C298.892 2572.68 330.225 2607.12 368.715 2635.15C510.815 2740.2 748.395 2758.76 1045.86 2721.95C1363.84 2680.68 1633.61 2602.29 1864.46 2535.41C1694.47 2585.03 1562.62 2618.33 1452.24 2643.07C1431.39 2647.73 1411.46 2652.06 1392.31 2656.1C1256.24 2684.55 1157.95 2700.35 1051.74 2713.97C545.038 2774.24 367.497 2659.16 277.713 2501.85C273.503 2494.05 269.397 2485.82 265.43 2477.13C250.479 2445.68 243.771 2400.01 245.416 2348.57C249.676 2222.43 294.583 2069.95 351.739 1911.79C403.313 1762.53 478.892 1603.72 523.373 1410.51C523.388 1410.43 523.404 1410.35 523.419 1410.28C524.998 1401.65 526.864 1389.98 527.893 1380.03C528.434 1374.94 528.84 1369.94 529.096 1365.02C529.425 1359.13 529.539 1353.33 529.398 1347.65C528.517 1328 526.526 1295.24 498.656 1271.48C456.2 1242.2 425.571 1255.74 396.606 1262.69C384.543 1266.48 371.746 1271.4 357.971 1277.51C346.735 1282.55 335.489 1288.08 323.244 1294.52C297.869 1307.95 279.758 1318.87 254.923 1334.33C234.644 1347.15 213.424 1361.21 190.3 1377.09C132.259 1418.81 68.6459 1469.57 67.1107 1555.04C72.29 1639.94 139.127 1687.51 195.133 1724C216.272 1737.21 245.546 1752.97 276.05 1766.8C460.438 1852.08 806.146 1929.58 1233.15 1953.35C1326.48 1958.45 1424.35 1961.76 1535.83 1960.33C1569.81 1959.87 1604.99 1958.95 1641.79 1957.35C1799.97 1949.25 1995.3 1935.8 2245.1 1865.38C2444.5 1805.4 2713.75 1700.37 2855.86 1450.68C2862.9 1437.91 2869.5 1424.85 2875.63 1411.48C2926.31 1301.28 2958.94 1181.54 2974.72 1061.86C3014.95 750.323 2953.61 458.674 2882.42 186.922C2869.91 142.891 2857.74 97.8247 2817.74 56.409C2797.88 35.8554 2762.09 21.0459 2730.62 26.0899C2699.26 30.38 2676.02 44.6356 2656.08 59.2679C2656.01 59.3206 2655.94 59.3733 2655.87 59.4261C2616.38 89.83 2591.14 115.508 2586.32 109.692C2582.66 104.224 2601.24 68.4668 2646.42 35.3014C2668.51 19.9732 2695.87 3.80717 2734.53 0.534157C2773.66 -3.67793 2816.59 17.6833 2838.07 41.2833C2882.34 89.6646 2893.6 135.4 2906.63 180.461C2978.33 454.402 3040.83 750.148 2999.14 1068.15C2983.04 1188.26 2950.02 1309.63 2898.41 1421.85C2892.12 1435.58 2885.35 1449.02 2878.13 1462.15C2729.08 1724.07 2449.58 1830.45 2246.13 1891.16C1988.34 1962.88 1788.65 1975.55 1626.81 1983.16C1587.83 1984.67 1551.08 1985.44 1516.22 1985.73C1405.26 1986.54 1312.8 1982.94 1223.86 1977.92C807.827 1953.75 472.953 1880.59 282.418 1797.2C248.158 1782.27 219.99 1767.98 194.592 1753.04C135.069 1714.98 58.2071 1670.57 42.5325 1566.22C37.8492 1458.07 115.181 1400.71 176.398 1356.01C261.972 1305.89 317.524 1234.73 467.4 1230.65C483.8 1232.92 508.961 1243.74 523.793 1260.42C531.586 1268.69 537.609 1278.03 542.009 1287.43C546.127 1296.3 548.476 1303.74 550.413 1311.82C557.332 1343.71 554.639 1366.87 552.457 1387.88C552.449 1387.97 552.44 1388.06 552.432 1388.15C512.622 1596.91 433.659 1751.2 381.224 1904.43C325.847 2056.28 285.156 2191.44 273.368 2311.56C267.306 2373.67 271.76 2432.27 288.907 2467.33C289.406 2468.43 289.907 2469.51 290.412 2470.59C370.918 2633.82 542.689 2748.82 1047.71 2689.25ZM2758.09 139.75C2769.45 159.147 2778.19 186.524 2784.68 213.008C2798.93 270.463 2811.12 319.487 2820.69 359.182C2809.77 310.344 2797.86 261.592 2785.58 212.767C2785 210.439 2784.41 208.161 2783.82 205.934C2777.17 180.591 2768.23 156.014 2758.09 139.75ZM393.391 1671.8C399.356 1655.75 405.218 1639.84 410.895 1624.2C394.184 1667.42 376.522 1711.58 359.332 1754.91C337.991 1808.67 317.016 1861.9 296.849 1915.9C329.24 1830.39 362.907 1748.47 393.391 1671.8ZM1049.62 2746.71C767.06 2780.59 542.898 2771.26 383.519 2675.81C337.706 2647.81 299.768 2613.46 268.8 2571.29C256.526 2554.6 245.263 2536.72 234.969 2517.23C288.743 2632.71 391.253 2701.47 481.121 2734.5C757.619 2822.24 935.399 2781.45 1079.75 2770.74C1123.38 2765.48 1162.31 2759.89 1204.34 2753.04C1239 2746.12 1273.57 2738.69 1309.23 2730.66C1359.34 2719.38 1412.62 2706.43 1463.61 2693.31C1515.03 2680.1 1566.32 2666.2 1617.14 2651.92C1668.29 2637.54 1718.82 2622.81 1768.88 2607.82C1816.45 2593.59 1862.99 2579.3 1908.49 2565.05C1911.11 2564.23 1913.73 2563.41 1916.34 2562.59C1964.96 2547.33 2009.91 2532.9 2053.71 2518.53C2097.82 2504.05 2132.09 2492.43 2165.07 2480.88C2205.93 2466.56 2244.38 2453 2286.35 2438.41C2327.92 2423.96 2365.67 2410.84 2407.91 2396.53C2448.55 2382.74 2488.12 2369.52 2529.33 2356.28C2542.37 2352.09 2555.75 2347.83 2568.19 2343.94C2574.03 2342.11 2580.74 2340.04 2586.9 2338.15C2507.56 2360.93 2424.4 2387.09 2339.49 2414.04C2216.01 2453.25 2086.65 2494.71 1942.06 2538.37C1695.3 2610.92 1408.78 2699.05 1049.62 2746.71ZM2702.53 3153.92C2690.9 3122.22 2675.11 3075.1 2670.62 3012.74C2669.59 2997.73 2669.27 2982.63 2669.87 2966.11C2669.85 2966.49 2669.83 2966.89 2669.81 2967.28C2667.68 3007.29 2670.87 3045.42 2679.32 3085.13C2694.59 3156.47 2725.53 3223.05 2761.66 3289.1C2797.84 3355.53 2839.54 3420.93 2873.89 3493.12C2908.19 3564.75 2933.96 3647.52 2927.82 3731.63C2923.86 3792.68 2904.57 3850.62 2877.11 3903.05C2865.85 3924.6 2853.24 3944.45 2839.3 3962.61C2823.74 3982.96 2804.49 4003.34 2783.65 4020.52C2822.62 3988.77 2852.51 3952.1 2878.49 3903.77C2884.42 3892.64 2889.88 3881.49 2894.85 3870.32C2915.86 3823.22 2930.65 3769.42 2931.68 3711.15C2932.11 3688.88 2930.69 3661.93 2925.14 3631.38C2910.05 3505.04 2787.22 3356.18 2702.53 3153.92ZM2162.93 4061.59C2145.35 4056.64 2127.72 4051.4 2110.16 4045.93C2062.39 4031.06 2015.89 4014.78 1969.63 3997.4C1938.52 3985.71 1907.46 3973.47 1876.61 3960.89C1863.61 3955.59 1850.47 3950.15 1837.64 3944.77C1816.71 3936 1795.85 3927.07 1775.05 3918.02C1921.04 3982.52 2065.25 4040.59 2225.24 4081.94C2227.26 4082.45 2229.38 4082.98 2231.62 4083.54C2208.03 4076.52 2185.54 4069.27 2162.93 4061.59Z" fill="#F46969"/>
</svg>
