<svg width="2852" height="5995" viewBox="0 0 2852 5995" fill="none" xmlns="http://www.w3.org/2000/svg">
<path d="M1882.5 286.25H1940V128.75H2097.5V50H2276.25V207.5H2333.75V128.75H2591.25V327.75H2852V1631.25H208V2634.25H2852V4120.94L2801.32 4120.25L180.5 4084.44V4922.75H1548V5994.25H1448V5022.75H80.5V3983.06L131.183 3983.75L2752 4019.56V2734.25H108V1531.25H2752V427.75H2591.25V465H1703.75V386.25H1646.25V465H1388.75V386.25H1310V307.5H1252.5V465H758.75V386.25H680V307.5H543.75V465H50V50H386.25V128.75H701.25V207.5H758.75V50H937.5V286.25H1073.75V128.75H1310V50H1488.75V128.75H1567.5V286.25H1625V207.5H1703.75V50H1882.5V286.25Z" stroke="#252AC0" stroke-width="100"/>
</svg>
