<svg width="3114" height="5952" viewBox="0 0 3114 5952" fill="none" xmlns="http://www.w3.org/2000/svg">
<path d="M2641.2 235.065C2641.2 235.065 2824.7 -68.4352 2905.7 235.065C2986.7 538.564 3100.41 1010.8 2905.7 1438.56C2477.93 2378.33 -466.3 1918.56 261.7 1438.56C989.7 958.565 95.8571 2144.02 261.7 2541.56C659.243 3494.51 3503.7 1829.06 2905.7 2541.56C2307.7 3254.06 3156.33 3447.82 2905.7 3927.56C2422.58 4852.36 -561.8 1997.56 234.2 3891.06C1030.2 5784.56 -299.842 4830.06 234.2 4830.06C768.242 4830.06 965.701 4151.56 1601.7 4830.06C2237.7 5508.56 2135.74 5851.56 1601.7 5851.56" stroke="#523CE2" stroke-width="200" stroke-linecap="round"/>
</svg>
